`                                                                  
               ,o888888o.     8 888888888o.      8 888888888o.      
            . 8888     `88.   8 8888    `^888.   8 8888    `^888.   
           ,8 8888       `8b  8 8888        `88. 8 8888        `88. 
           88 8888        `8b 8 8888         `88 8 8888         `88 
           88 8888         88 8 8888          88 8 8888          88 
           88 8888         88 8 8888          88 8 8888          88 
           88 8888        ,8P 8 8888         ,88 8 8888         ,88 
           `8 8888       ,8P  8 8888        ,88' 8 8888        ,88' 
            ` 8888     ,88'   8 8888    ,o88P'   8 8888    ,o88P'   
               `8888888P'     8 888888888P'      8 888888888P' 
     
                                   oddball                               
      8 888888888o            .8.  -links  8 8888         8 8888         
      8 8888    `88.         .888. .       8 8888         8 8888         
      8 8888     `88        :88888. c      8 8888         8 8888         
      8 8888     ,88       . `88888. o     8 8888         8 8888         
      8 8888.   ,88'      .8. `88888. m    8 8888         8 8888         
      8 8888888888       .8`8. `88888.     8 8888         8 8888         
      8 8888    `88.    .8' `8. `88888.    8 8888         8 8888         
      8 8888      88   .8'   `8. `88888.   8 8888         8 8888         
      8 8888    ,88'  .888888888. `88888.  8 8888         8 8888         
      8 888888888P   .8'       `8. `88888. 8 888888888888 8 888888888888 

Traitor is a 2008 American spy thriller film, based on an idea by Steve Martin who is also an executive producer. Written and directed by Jeffrey Nachmanoff, the film stars Don Cheadle and Guy Pearce.

                                   Cast 

                       Actor                    Role 


                      Don Cheadle ............  Samir Horn 

                      Guy Pearce .............  Roy Clayton 
                      
                      Saïd Taghmaoui .........  Omar 

                      Neal McDonough .........  Max Archer 
                     
                      Alyy Khan ..............  Fareed Mansour 

                      Archie Panjabi .........  Chandra Dawkin 

                      Raad Rawi ..............  Nathir 

                      Hassam Ghancy ..........  Bashir 

                      Mozhan Marnò ...........  Leyla 
                  
                      Adeel Akhtar ...........  Hamzi 

                      Jeff Daniels ...........  Carter 

                      Lorena Gale ............  Dierdre Horn 

                      Scali Delpeyrat ........  Inspector Gilles 
                    
                      Mehdi Ortelsberg .......  Ali 
                  
                      Aizoun Abdelkader ......  Ahmed 

General
Complete name                    : Traitor
Format                           : AVI
Format/Info                      : Audio Video Interleave
File size                        : 1.05 GiB
Duration                         : 1h 49mn
Overall bit rate                 : 1 365 Kbps

Video
Format                           : MPEG-4 Visual
Format profile                   : Streaming Video@L1
Format settings, BVOP            : Yes
Format settings, QPel            : No
Format settings, GMC             : No warppoints
Format settings, Matrix          : Default
Muxing mode                      : Packed bitstream
Codec ID                         : XVID
Codec ID/Hint                    : XviD
Duration                         : 1h 49mn
Bit rate                         : 1 162 Kbps
Width                            : 1 024 pixels
Height                           : 582 pixels
Display aspect ratio             : 16/9
Frame rate                       : 29.970 fps
Resolution                       : 24 bits
Colorimetry                      : 4:2:0
Scan type                        : Progressive
Bits/(Pixel*Frame)               : 0.065
Stream size                      : 912 MiB (85%)
Writing library                  : XviD 1.1.0 (UTC 2005-11-22)

Audio
Format                           : MPEG Audio
Format version                   : Version 1
Format profile                   : Layer 3
Codec ID                         : 55
Codec ID/Hint                    : MP3
Duration                         : 1h 49mn
Bit rate mode                    : Constant
Bit rate                         : 192 Kbps
Channel(s)                       : 2 channels
Sampling rate                    : 44.1 KHz
Resolution                       : 16 bits
Video delay                      : 26ms
Stream size                      : 151 MiB (14%)
Alignment                        : Split accross interleaves
Interleave, duration             : 33 ms (1.00 video frame)
Title                            : Audio Stream
Writing library                  : LAME3.92

For more oddball torrents  http://thepiratebay.org/user/oddball-links `                                                                                                            Please seed after downloading `                                                                                            :::===  :::===== :::===== :::====       :::= === :::====  :::====
        :::     :::      :::      :::  ===      :::===== :::  === :::====
         =====  ======   ======   ===  ===      ======== ===  ===   ===  
            === ===      ===      ===  ===      === ==== ===  ===   ===  
        ======  ======== ======== =======       ===  ===  ======    ===  
                                                                         
                  :::=====  :::====  :::===== :::===== :::==== 
                  :::       :::  === :::      :::      :::  ===
                  === ===== =======  ======   ======   ===  ===
                  ===   === === ===  ===      ===      ===  ===
                   =======  ===  === ======== ======== =======